Coordinates
version=1
nRows=19
nColumns=36
inDegrees=yes

Units are S.I. units (second, meters, Newtons, ...)
If the header above contains a line with 'inDegrees', this indicates whether rotational values are in degrees (yes) or radians (no).

endheader
time	pelvis_tilt	pelvis_list	pelvis_rotation	pelvis_tx	pelvis_ty	pelvis_tz	hip_flexion_r	hip_adduction_r	hip_rotation_r	knee_angle_r	knee_angle_r_beta	ankle_angle_r	subtalar_angle_r	mtp_angle_r	hip_flexion_l	hip_adduction_l	hip_rotation_l	knee_angle_l	knee_angle_l_beta	ankle_angle_l	subtalar_angle_l	mtp_angle_l	lumbar_extension	lumbar_bending	lumbar_rotation	arm_flex_r	arm_add_r	arm_rot_r	elbow_flex_r	pro_sup_r	arm_flex_l	arm_add_l	arm_rot_l	elbow_flex_l	pro_sup_l
      4.68333330	      1.49377663	     -1.84035575	     -0.68201921	      0.10562799	      1.19307012	      0.39405288	      1.26137377	      0.96171197	     -4.07151078	      4.69558709	      0.08195346	      6.07605704	    -14.57541056	     -7.49999987	      2.92469480	      1.25790050	      0.27581550	      6.31068636	      0.11014226	      9.78729304	     -3.39558729	     -7.49999987	     -0.61669478	      1.83964846	     -2.73101206	     -0.44859430	     -4.41474462	      5.74905317	     28.58531381	     89.62907740	     -2.58476154	     -0.69617557	     -3.31670836	     28.13980335	     83.94684211
      4.70000000	      1.53455520	     -1.86809146	     -0.74972597	      0.10052798	      1.19029292	      0.39746982	      1.21393154	      0.99539309	     -4.16047774	      4.74040987	      0.08273576	      6.09551742	    -14.61658828	     -7.49999987	      2.86520998	      1.20999736	      0.14821834	      6.33655000	      0.11059366	      9.89941115	     -3.46496620	     -7.49999987	     -0.51638283	      1.85086467	     -2.77388887	     -0.46466904	     -4.37158958	      5.75218179	     28.57554182	     89.63459461	     -2.48693814	     -0.71367691	     -3.30389688	     28.21652705	     83.95949140
      4.71666670	      1.59404817	     -1.90262798	     -0.79370185	      0.10010068	      1.19385907	      0.39747334	      1.21256102	      1.04449015	     -4.09359341	      4.84654856	      0.08458823	      6.00306363	    -14.75661929	     -7.49999987	      2.84054173	      1.13851718	     -0.14030950	      6.44091302	      0.11241514	     10.02796576	     -3.16156824	     -7.49999987	     -0.54810907	      1.90092768	     -2.85075032	     -0.03946823	     -4.35428830	      6.34746445	     27.92869907	     88.87741309	     -2.30004259	     -0.99836382	     -2.16122367	     28.26950008	     83.29646092
      4.73333330	      1.80788913	     -1.90838650	     -0.97691615	      0.11285416	      1.18932255	      0.39641087	      0.72743779	      1.01581845	     -3.98238589	      4.80327190	      0.08383291	      5.80887267	    -14.83635250	     -7.49999987	      2.28121801	      1.11945076	     -0.44989372	      6.33389537	      0.11054733	     10.17332823	     -3.04260643	     -7.49999987	     -0.46731426	      1.94656770	     -2.94131084	     -0.20578760	     -4.56573948	      7.33119819	     27.88047856	     88.43809218	     -2.73139503	     -1.10122570	     -1.63179197	     28.59172170	     82.71741366
      4.75000000	      1.75401748	     -1.95560212	     -1.03101433	      0.11252814	      1.19288699	      0.39642483	      0.55965299	      1.03448730	     -4.04581623	      4.85654199	      0.08476265	      5.82471164	    -14.76774917	     -7.49999987	      2.00273987	      1.08866640	     -0.44333323	      6.00476104	      0.10480285	     10.38917890	     -3.03433408	     -7.49999987	     -0.13677110	      2.07373170	     -2.95697792	     -0.42941271	     -4.56983456	      7.17354445	     27.81407737	     88.49691150	     -3.05558032	     -1.06876634	     -1.70643350	     28.49556439	     82.78550075
      4.76666670	      1.70175503	     -1.97578813	     -1.20375748	      0.10033197	      1.19478344	      0.39763665	      0.66055497	      1.03702423	     -4.11156086	      4.74774180	      0.08286373	      5.90999543	    -14.82209664	     -7.49999987	      2.03819088	      1.07002149	     -0.61191105	      5.93017076	      0.10350100	     10.43487994	     -3.13573472	     -7.49999987	     -0.13037093	      2.06012693	     -2.93481044	     -0.30494443	     -4.57023002	      7.13497148	     27.82446779	     88.50945498	     -3.00985411	     -1.17343171	     -1.73656287	     28.47886916	     82.79929241
      4.78333330	      1.69281630	     -1.95669498	     -1.22133076	      0.10531270	      1.19819538	      0.39389812	      0.64191128	      0.96787791	     -4.08838931	      4.69651207	      0.08196960	      5.67655160	    -14.71475815	     -7.49999987	      1.95822643	      1.13423183	     -0.73210445	      5.73635119	      0.10011822	     10.14188963	     -3.09440119	     -7.49999987	     -0.04629134	      2.15390768	     -2.96285840	     -0.19427665	     -4.68163374	      7.02444266	     27.72949987	     88.53225152	     -3.12822946	     -1.05872365	     -1.73697802	     28.36176034	     82.83698727
      4.80000000	      1.39900428	     -1.92619735	     -1.39114277	      0.10586353	      1.19687032	      0.39435987	      0.84549599	      0.91537254	     -4.04497340	      4.50700275	      0.07866204	      5.72884786	    -14.39849779	     -7.49999987	      2.02275340	      1.19630177	     -0.93905566	      5.31825533	      0.09282107	      9.99084932	     -2.93097546	     -7.49999987	      0.52083485	      2.16532803	     -2.95446091	     -0.45910303	     -4.74890585	      6.85510940	     28.02979383	     87.87523262	     -3.55528090	     -1.02477104	     -1.77845362	     28.66659643	     82.23869251
      4.81666670	      1.55971006	     -1.91974354	     -1.43225306	      0.10028983	      1.19128308	      0.39808290	      0.81288449	      0.97171490	     -3.84139681	      4.41177204	      0.07699995	      5.66988324	    -14.63011642	     -7.49999987	      1.86411434	      1.21270946	     -0.94029404	      5.08423874	      0.08873671	      9.87998086	     -2.91025125	     -7.49999987	      0.15555764	      2.16489439	     -2.98132681	      0.16275798	     -4.37941846	      4.78314517	     27.03089749	     92.21812692	     -3.13050103	     -0.96989657	     -2.82002094	     27.89383935	     86.02078761
      4.83333330	      1.59150030	     -1.89105924	     -1.42798362	      0.10577599	      1.19414824	      0.39450823	      0.76648494	      0.94680765	     -3.79559760	      4.38619594	      0.07655356	      5.67038279	    -14.58854588	     -7.49999987	      1.85857125	      1.28564435	     -0.93644930	      5.12241757	      0.08940305	      9.73725991	     -2.81595038	     -7.49999987	      0.17255457	      2.18246702	     -3.01688876	      0.18313551	     -4.53668473	      4.74387844	     27.01012469	     92.21059865	     -3.21226769	     -0.90961488	     -2.81333173	     27.86092022	     86.02268647
      4.85000000	      1.62888108	     -1.87232802	     -1.35295655	      0.10530151	      1.19676984	      0.39451870	      0.64921315	      0.93068110	     -3.75641059	      4.23156953	      0.07385482	      5.84757674	    -14.37392366	     -7.49999987	      1.80810154	      1.36711851	     -0.95893693	      5.10314924	      0.08906676	      9.78913548	     -2.55507305	     -7.49999987	      0.17721754	      2.19538214	     -3.28880195	      0.22023464	     -4.49242173	      4.52582844	     27.01359050	     91.35464620	     -3.42480273	     -0.84639999	     -2.89579317	     27.87616842	     85.05124299
      4.86666670	      1.57793403	     -1.86050434	     -1.45059323	      0.10060691	      1.19082562	      0.39817984	      0.80851230	      0.97515828	     -3.62026319	      4.17856745	      0.07292976	      6.16065539	    -14.25900883	     -7.49999987	      1.94126524	      1.37152049	     -1.13988135	      5.24956180	      0.09162214	     10.02731110	     -2.55703979	     -7.49999987	      0.24658538	      2.19459680	     -3.25920851	      0.29611964	     -4.46865094	      4.47976931	     26.97090982	     88.44496475	     -3.40225859	     -0.86579184	     -2.93132175	     27.76279298	     82.45595234
      4.88333330	      1.62183416	     -1.87617196	     -1.41205502	      0.10570570	      1.19434701	      0.39450839	      0.76748078	      0.94309958	     -3.65458148	      4.23772253	      0.07396221	      6.09322086	    -14.25067454	     -7.49999987	      1.82475821	      1.40396763	     -1.16618062	      5.28561138	      0.09225132	      9.99273567	     -2.50067482	     -7.49999987	      0.29836245	      2.22159957	     -3.27514514	      0.22510549	     -4.57160391	      4.47146445	     26.94996452	     88.46807538	     -3.57482042	     -0.73695680	     -2.90925894	     27.75457654	     82.47787161
      4.90000000	      1.57311182	     -1.88797188	     -1.56426384	      0.10043271	      1.19369141	      0.39815498	      0.87287759	      0.98679126	     -3.65261047	      4.20981838	      0.07347519	      6.11027585	    -14.24088096	     -7.49999987	      1.86483409	      1.38264981	     -1.35973565	      5.21175713	      0.09096232	     10.15863561	     -2.55656902	     -7.49999987	      0.29250678	      2.25218659	     -3.27251715	      0.33248141	     -4.59558788	      4.46992373	     27.02853828	     88.51455450	     -3.61491639	     -0.81087478	     -2.93451043	     27.83266864	     82.51336535
      4.91666670	      1.31204093	     -1.91741759	     -1.60895800	      0.09999112	      1.19324544	      0.39830560	      1.26616264	      1.07413134	     -3.61640664	      4.26985800	      0.07452308	      6.10020721	    -14.05378978	     -7.49999987	      2.25654219	      1.30180628	     -1.52055756	      5.24584070	      0.09155719	     10.12663110	     -2.44486340	     -7.49999987	      0.58794595	      2.28123075	     -3.26189689	      0.13276410	     -4.63981173	      4.45291551	     27.83468928	     87.56760478	     -3.95114713	     -0.87898213	     -3.01652023	     28.68914455	     81.61905543
      4.93333330	      1.35595190	     -1.90409845	     -1.50562021	      0.10571217	      1.19412550	      0.39437143	      1.20882172	      1.03667689	     -3.55961531	      4.32201512	      0.07543339	      6.04180047	    -14.01885196	     -7.49999987	      2.17088164	      1.32428395	     -1.57748142	      5.28629876	      0.09226332	     10.13100701	     -2.44586301	     -7.49999987	      0.59394884	      2.26059760	     -3.26892640	      0.11997669	     -4.64819118	      4.45133592	     27.81753226	     87.58772676	     -4.04343741	     -0.80648265	     -3.01793019	     28.65176302	     81.63435274
      4.95000000	      1.36127546	     -1.94898712	     -1.54125477	      0.10011743	      1.19317750	      0.39815242	      1.23990763	      1.11288102	     -3.55101229	      4.31573687	      0.07532382	      6.07176634	    -14.03775891	     -7.49999987	      2.10736677	      1.27035410	     -1.64993731	      5.19020967	      0.09058625	     10.28465942	     -2.47380536	     -7.49999987	      0.62887436	      2.26481614	     -3.30187783	      0.15363235	     -4.58121271	      4.46218640	     27.83346258	     87.61852869	     -3.98605827	     -0.86062254	     -3.05387479	     28.66295167	     81.65284417
      4.96666670	      1.43278091	     -1.99095218	     -1.58430691	      0.10051647	      1.19061661	      0.39809554	      1.17943172	      1.18982257	     -3.42754572	      4.15449424	      0.07250960	      6.10087811	    -14.03327910	     -7.49999987	      2.05924170	      1.22989811	     -1.65811643	      4.99042052	      0.08709927	     10.27165790	     -2.28109243	     -7.49999987	      0.52402789	      2.31759798	     -3.30443476	      0.05338343	     -4.57127465	      4.43748378	     28.22859560	     86.91522131	     -4.18050195	     -0.83934877	     -3.24147183	     29.05170194	     80.84795439
      4.98333330	      1.58987766	     -2.01908717	     -1.61594767	      0.09989198	      1.19366215	      0.39819038	      1.10350732	      1.24670636	     -3.28878080	      4.20497001	      0.07339057	      6.07135520	    -14.18823201	     -7.49999987	      1.90823320	      1.16514609	     -1.89785087	      4.96202091	      0.08660360	     10.37148991	     -1.88286919	     -7.49999987	      0.31101379	      2.30675413	     -3.64839152	      0.76273630	     -4.54373075	      5.26389647	     27.65215125	     90.65956519	     -4.21427720	     -0.63842008	     -5.42039376	     29.20472200	     84.02215479
